<svg width="133" height="134" viewBox="0 0 133 134" fill="none" xmlns="http://www.w3.org/2000/svg">
<path d="M129.19 71.7949L128.13 52.5549C128.703 52.424 129.207 52.0858 129.545 51.6055C129.884 51.1251 130.032 50.5366 129.963 49.9531C129.893 49.3697 129.61 48.8325 129.169 48.4452C128.727 48.0578 128.157 47.8475 127.57 47.8549H127.45L123.15 38.9149C123.409 38.7167 123.6 38.4421 123.695 38.1297C123.791 37.8173 123.785 37.4829 123.681 37.1736C123.576 36.8644 123.376 36.5959 123.111 36.4059C122.845 36.216 122.526 36.1141 122.2 36.1149C121.998 36.1156 121.798 36.1529 121.61 36.2249L115.37 26.6249C115.648 26.4055 115.872 26.1259 116.026 25.8072C116.18 25.4885 116.26 25.1389 116.26 24.7849C116.259 24.3219 116.123 23.8692 115.869 23.4822C115.615 23.0952 115.254 22.7907 114.829 22.606C114.405 22.4213 113.935 22.3644 113.479 22.4424C113.023 22.5204 112.599 22.7297 112.26 23.0449L103.19 15.3049C103.329 15.0608 103.404 14.7857 103.41 14.5049C103.406 14.1779 103.3 13.8604 103.106 13.5966C102.913 13.3329 102.642 13.1361 102.332 13.0337C102.021 12.9312 101.686 12.9283 101.374 13.0254C101.062 13.1224 100.788 13.3145 100.59 13.5749L86.8498 6.63488C86.9544 6.42698 87.0092 6.19759 87.0098 5.96486C87.0153 5.57081 86.8715 5.18924 86.6073 4.89687C86.343 4.6045 85.9779 4.42298 85.5853 4.38878C85.1927 4.35459 84.8017 4.47026 84.4909 4.71255C84.18 4.95483 83.9724 5.30579 83.9098 5.69488L67.8498 3.46486C67.8641 2.57795 67.5322 1.72038 66.9246 1.07415C66.3169 0.427913 65.4814 0.0438676 64.5953 0.00353063C63.7092 -0.0368063 62.8422 0.269757 62.1784 0.858114C61.5146 1.44647 61.1062 2.27032 61.0398 3.15487L48.2298 5.59487C48.1433 5.21983 47.9212 4.88997 47.6063 4.66875C47.2913 4.44753 46.9057 4.35057 46.5236 4.39647C46.1414 4.44238 45.7898 4.62792 45.5362 4.91744C45.2826 5.20696 45.145 5.58001 45.1498 5.96486C45.1492 6.20092 45.204 6.43381 45.3098 6.64486L31.5598 13.5649C31.4123 13.3733 31.223 13.2179 31.0064 13.1104C30.7898 13.003 30.5516 12.9464 30.3098 12.9449C29.896 12.9449 29.4992 13.1092 29.2067 13.4018C28.9141 13.6943 28.7498 14.0911 28.7498 14.5049C28.7523 14.7906 28.8317 15.0704 28.9798 15.3149L19.8698 23.0949C19.4254 22.6855 18.8439 22.4572 18.2398 22.4549C17.7443 22.4532 17.2608 22.6063 16.8565 22.8926C16.4522 23.1789 16.1473 23.5843 15.9844 24.0521C15.8215 24.52 15.8086 25.0271 15.9476 25.5026C16.0866 25.9781 16.3705 26.3984 16.7598 26.7049L10.5098 36.2949C10.345 36.1928 10.1613 36.1248 9.96978 36.0949C9.6432 36.0942 9.32463 36.1959 9.05898 36.3859C8.79333 36.5758 8.59399 36.8444 8.48907 37.1536C8.38414 37.4629 8.3789 37.7973 8.47411 38.1097C8.56933 38.4221 8.76018 38.6967 9.01977 38.8949L4.71978 47.8349H4.59978C4.00667 47.8232 3.43055 48.0334 2.98437 48.4243C2.53818 48.8153 2.2541 49.3588 2.18777 49.9483C2.12143 50.5378 2.27764 51.1308 2.62578 51.6111C2.97393 52.0915 3.4889 52.4245 4.06978 52.5449L2.96978 71.4649C2.11279 71.5787 1.33069 72.0128 0.780844 72.68C0.231003 73.3471 -0.0457683 74.1977 0.00618624 75.0606C0.0581408 75.9236 0.434964 76.7349 1.06087 77.3312C1.68678 77.9275 2.51533 78.2647 3.37978 78.2749C3.54733 78.2687 3.71433 78.252 3.87978 78.2249L9.48977 95.9049C9.24264 96.2658 9.09932 96.6877 9.07543 97.1245C9.05154 97.5613 9.14801 97.9963 9.3543 98.3821C9.56059 98.7678 9.8688 99.0896 10.2454 99.3122C10.6219 99.5349 11.0523 99.65 11.4898 99.6449H11.5598L18.4098 108.875C18.4 108.965 18.4 109.055 18.4098 109.145C18.4098 109.559 18.5741 109.955 18.8667 110.248C19.1592 110.541 19.556 110.705 19.9698 110.705L35.6398 122.245C35.5962 122.428 35.5727 122.616 35.5698 122.805C35.5698 123.439 35.8216 124.047 36.2698 124.495C36.718 124.943 37.3259 125.195 37.9598 125.195C38.3007 125.196 38.6377 125.122 38.947 124.979C39.2563 124.835 39.5303 124.626 39.7498 124.365L54.0898 129.005C54.0462 129.219 54.0228 129.436 54.0198 129.655C54.0251 130.515 54.3542 131.341 54.9415 131.969C55.5288 132.598 56.3313 132.981 57.1889 133.045C58.0466 133.108 58.8965 132.845 59.5694 132.31C60.2423 131.774 60.6887 131.005 60.8198 130.155L72.2498 130.105C72.3702 130.686 72.7032 131.201 73.1835 131.549C73.6639 131.897 74.2569 132.053 74.8464 131.987C75.4359 131.921 75.9794 131.636 76.3703 131.19C76.7613 130.744 76.9715 130.168 76.9598 129.575C76.9653 129.498 76.9653 129.421 76.9598 129.345L92.3498 124.345C92.6695 124.71 93.093 124.968 93.5636 125.086C94.0342 125.203 94.5295 125.174 94.9831 125.002C95.4367 124.83 95.8269 124.524 96.1016 124.124C96.3762 123.724 96.5221 123.25 96.5198 122.765C96.5191 122.569 96.4922 122.374 96.4398 122.185L111.81 110.925C112.082 110.99 112.366 110.993 112.639 110.932C112.912 110.871 113.168 110.749 113.387 110.575C113.606 110.4 113.782 110.178 113.902 109.925C114.022 109.672 114.083 109.395 114.08 109.115C114.077 108.914 114.044 108.715 113.98 108.525L120.64 99.6149C121.082 99.6239 121.518 99.5101 121.9 99.2859C122.281 99.0618 122.593 98.7362 122.8 98.3454C123.007 97.9546 123.102 97.5139 123.074 97.0724C123.046 96.631 122.895 96.206 122.64 95.8449L128.16 78.5149C128.388 78.5556 128.618 78.5757 128.85 78.5749C129.743 78.6054 130.613 78.2836 131.272 77.6789C131.931 77.0742 132.326 76.2349 132.372 75.3419C132.418 74.4488 132.111 73.5735 131.518 72.9044C130.924 72.2354 130.092 71.8262 129.2 71.7649L129.19 71.7949ZM122.03 39.2349H122.12L126.06 48.3949C125.843 48.5707 125.66 48.7841 125.52 49.0249L118.04 47.0249C119.7 43.8249 121.25 40.7749 122.03 39.2349ZM118.3 97.3349L110.66 98.2349L108.91 89.1749L118.46 96.3849C118.347 96.661 118.289 96.9566 118.29 97.2549C118.29 97.2549 118.3 97.3049 118.3 97.3349ZM95.6298 100.215C95.6329 100.58 95.722 100.94 95.8898 101.265L85.1498 108.095C84.9539 107.833 84.6804 107.638 84.3681 107.54C84.0558 107.442 83.7205 107.444 83.4096 107.547C83.0988 107.65 82.8282 107.848 82.6362 108.113C82.4442 108.379 82.3405 108.697 82.3398 109.025C82.3398 109.075 82.3398 109.125 82.3398 109.175L67.1298 111.805C67.0552 111.234 66.7756 110.711 66.3432 110.331C65.9108 109.951 65.3551 109.742 64.7798 109.742C64.2044 109.742 63.6487 109.951 63.2163 110.331C62.7839 110.711 62.5044 111.234 62.4298 111.805L49.7498 109.215C49.7547 109.148 49.7547 109.081 49.7498 109.015C49.7393 108.696 49.6312 108.388 49.44 108.132C49.2489 107.876 48.9838 107.685 48.6807 107.585C48.3777 107.485 48.0511 107.48 47.7451 107.571C47.4391 107.662 47.1685 107.845 46.9698 108.095L36.2298 101.245C36.3976 100.92 36.4867 100.56 36.4898 100.195C36.4916 99.781 36.3856 99.3739 36.1821 99.0135C35.9785 98.6532 35.6846 98.3522 35.3292 98.1402C34.9738 97.9281 34.5692 97.8124 34.1555 97.8045C33.7417 97.7966 33.333 97.8966 32.9698 98.0949L25.8598 88.5049C26.0922 88.1926 26.2184 87.8141 26.2198 87.4249C26.2198 86.9492 26.0315 86.4929 25.6961 86.1556C25.3607 85.8183 24.9054 85.6275 24.4298 85.6249L20.6298 73.1049C20.9448 72.9395 21.2034 72.6839 21.3725 72.3708C21.5416 72.0578 21.6136 71.7014 21.5793 71.3473C21.545 70.9931 21.4058 70.6572 21.1797 70.3825C20.9536 70.1078 20.6507 69.9067 20.3098 69.8049L20.8398 60.1749C21.3003 60.0751 21.7208 59.8409 22.0481 59.5019C22.3753 59.163 22.5946 58.7345 22.6781 58.2708C22.7617 57.8071 22.7057 57.329 22.5173 56.8971C22.3289 56.4653 22.0165 56.0991 21.6198 55.8449L24.6198 46.0949C24.9682 46.0176 25.2798 45.8239 25.5034 45.5458C25.727 45.2677 25.8492 44.9217 25.8498 44.5649C25.8507 44.3653 25.8098 44.1677 25.7298 43.9849L35.9098 31.9249C36.2693 32.06 36.6564 32.1053 37.0374 32.0569C37.4184 32.0085 37.7819 31.8678 38.0962 31.6471C38.4105 31.4264 38.6662 31.1323 38.8411 30.7903C39.016 30.4484 39.1048 30.0689 39.0998 29.6849C39.1097 29.5617 39.1097 29.438 39.0998 29.3149L58.3898 21.1249C58.5924 21.3791 58.8584 21.5754 59.161 21.6941C59.4636 21.8128 59.7921 21.8497 60.1135 21.801C60.4349 21.7524 60.7378 21.6199 60.9917 21.4169C61.2456 21.2139 61.4415 20.9476 61.5598 20.6449H70.7798C70.898 20.9476 71.094 21.2139 71.3479 21.4169C71.6018 21.6199 71.9047 21.7524 72.2261 21.801C72.5475 21.8497 72.876 21.8128 73.1786 21.6941C73.4812 21.5754 73.7472 21.3791 73.9498 21.1249L93.8598 29.5749C93.8614 29.8056 93.9138 30.033 94.0134 30.2411C94.1129 30.4492 94.257 30.6328 94.4356 30.7789C94.6141 30.925 94.8226 31.0299 95.0463 31.0863C95.27 31.1426 95.5034 31.149 95.7298 31.1049L105.65 42.8649C105.335 43.204 105.125 43.6278 105.047 44.0841C104.969 44.5405 105.026 45.0097 105.211 45.4342C105.396 45.8588 105.7 46.2203 106.087 46.4744C106.474 46.7285 106.927 46.8642 107.39 46.8649C107.568 46.8652 107.746 46.8451 107.92 46.8049L110.92 56.6149C110.68 56.7848 110.494 57.0193 110.382 57.2912C110.271 57.563 110.239 57.8609 110.29 58.1501C110.342 58.4394 110.474 58.708 110.672 58.9249C110.871 59.1417 111.126 59.2978 111.41 59.3749L111.98 69.7549C111.639 69.8567 111.336 70.0578 111.11 70.3325C110.884 70.6072 110.745 70.9431 110.71 71.2973C110.676 71.6515 110.748 72.0078 110.917 72.3209C111.086 72.6339 111.345 72.8895 111.66 73.0549L107.86 85.5749C107.384 85.5775 106.929 85.7683 106.593 86.1056C106.258 86.4429 106.07 86.8992 106.07 87.3749C106.066 87.7649 106.193 88.145 106.43 88.4549L99.1798 98.0949C98.8253 97.8957 98.4263 97.7891 98.0198 97.7849C97.7025 97.7848 97.3884 97.8479 97.0958 97.9705C96.8032 98.0931 96.5379 98.2728 96.3155 98.499C96.093 98.7251 95.9178 98.9934 95.8001 99.288C95.6824 99.5826 95.6245 99.8977 95.6298 100.215ZM97.2198 102.455L96.0498 108.905H85.7398L96.5198 102.095C96.7309 102.254 96.9676 102.376 97.2198 102.455ZM83.0398 110.355L79.6298 117.355L67.0298 112.935C67.034 112.905 67.034 112.875 67.0298 112.845L82.7598 110.115C82.8409 110.208 82.9353 110.289 83.0398 110.355ZM62.4998 112.885L52.2498 116.885L49.0698 110.345C49.1615 110.289 49.2456 110.222 49.3198 110.145L62.4998 112.885ZM46.3198 108.885H36.0698L34.8998 102.435C35.1585 102.334 35.401 102.196 35.6198 102.025L46.3198 108.885ZM13.6598 96.3649L23.1998 89.1549L21.4598 98.2149L13.8198 97.3149C13.8198 97.3149 13.8198 97.2649 13.8198 97.2349C13.8164 96.9444 13.7623 96.6567 13.6598 96.3849V96.3649ZM6.90978 49.9849L14.5498 47.9849C16.0698 50.9849 17.6198 53.9849 18.7098 56.0949C18.4528 56.317 18.2466 56.5919 18.1051 56.9007C17.9636 57.2095 17.8902 57.5452 17.8898 57.8849C17.8859 58.3676 18.0327 58.8395 18.3098 59.2349L14.4498 63.1449L6.44979 51.6449C6.75233 51.2368 6.91696 50.7429 6.91979 50.2349C6.92088 50.1581 6.91753 50.0813 6.90978 50.0049V49.9849ZM19.5998 55.5949C18.5398 53.5949 17.0398 50.5949 15.5498 47.7149L23.1298 45.7149C23.2552 45.8285 23.3967 45.9228 23.5498 45.9949L20.6198 55.5049C20.5033 55.4946 20.3862 55.4946 20.2698 55.5049C20.0424 55.5105 19.817 55.5475 19.5998 55.6149V55.5949ZM19.7798 60.2149L19.2398 69.8349H19.1298L15.0398 63.9449L19.0398 59.8849C19.2651 60.0422 19.5152 60.1605 19.7798 60.2349V60.2149ZM18.3098 70.4749C18.0774 70.7871 17.9512 71.1656 17.9498 71.5549C17.9451 71.5746 17.9451 71.5951 17.9498 71.6149L6.65978 73.9849C6.56469 73.609 6.40935 73.251 6.19979 72.9249L14.2998 64.7149L18.3098 70.4749ZM6.76977 75.0049L18.2798 72.5849C18.3964 72.7465 18.5382 72.8883 18.6998 73.0049L15.6998 82.0049L6.35979 76.4049C6.59007 75.978 6.72963 75.5082 6.76977 75.0249V75.0049ZM19.6198 73.4649L23.4098 85.9449C23.233 86.0649 23.0776 86.2136 22.9498 86.3849L16.6098 82.5749L19.6198 73.4649ZM24.2198 89.2249H24.3998C24.6194 89.2223 24.8366 89.1782 25.0398 89.0949L32.1798 98.7649C32.0315 98.9614 31.9166 99.181 31.8398 99.4149L22.4698 98.3149L24.2198 89.2249ZM22.0698 34.8449L34.8298 31.2649C34.8798 31.3149 34.9098 31.3749 34.9598 31.4249L24.9598 43.2449L24.5998 43.0949L22.0698 34.8449ZM38.0698 27.8449L42.4298 17.4849L57.5298 20.3749L38.6098 28.3749C38.4637 28.1729 38.2845 27.9971 38.0798 27.8549L38.0698 27.8449ZM74.5698 20.3749L89.6698 17.4849L94.2898 28.4849L94.0898 28.6849L74.5698 20.3749ZM96.9698 31.1949L110.08 34.8649L107.8 42.2449C107.64 42.2047 107.475 42.1846 107.31 42.1849C106.99 42.1851 106.674 42.2497 106.38 42.3749L96.9698 31.1949ZM112.11 56.4649C112.005 56.4385 111.898 56.4217 111.79 56.4149L108.79 46.4149C109.017 46.2461 109.211 46.0357 109.36 45.7949L116.63 47.6949C114.86 51.0949 113.13 54.4649 112.08 56.4649H112.11ZM112.5 59.3349L117.11 63.9949L112.97 69.8849H112.86L112.28 59.4549C112.351 59.4281 112.415 59.3873 112.47 59.3349H112.5ZM107.13 89.1449C107.328 89.2201 107.538 89.2607 107.75 89.2649H107.92L109.68 98.3749L100.3 99.4749C100.223 99.2348 100.108 99.0085 99.9598 98.8049L107.13 89.1449ZM108.71 85.9549L112.53 73.4749L115.53 82.5949L109.18 86.4049C109.044 86.2234 108.874 86.0705 108.68 85.9549H108.71ZM113.45 73.0249C113.611 72.9083 113.753 72.7665 113.87 72.6049L125.46 75.0349C125.46 75.0849 125.46 75.1349 125.46 75.1849C125.461 75.6384 125.553 76.0871 125.73 76.5049L116.4 82.0949L113.45 73.0249ZM125.65 74.0249L114.19 71.6149C114.19 71.6149 114.19 71.6149 114.19 71.5549C114.19 71.1638 114.06 70.7838 113.82 70.4749L117.82 64.7149L126.13 73.1249C125.906 73.4172 125.734 73.7452 125.62 74.0949L125.65 74.0249ZM117.7 63.1349L113.19 58.5649C113.272 58.3721 113.313 58.1643 113.31 57.9549C113.315 57.5906 113.191 57.2363 112.96 56.9549C114.04 54.9549 115.84 51.4049 117.6 47.9549L125.24 49.9549C125.235 50.0348 125.235 50.1149 125.24 50.1949C125.243 50.7029 125.407 51.1968 125.71 51.6049L117.7 63.1349ZM117.07 46.7849L109.67 44.8549C109.67 44.7549 109.67 44.6549 109.67 44.5549C109.664 44.1806 109.57 43.8129 109.396 43.4813C109.223 43.1496 108.974 42.8632 108.67 42.6449L111 35.1249L120.62 37.8149C120.647 38.193 120.81 38.5485 121.08 38.8149C120.31 40.3849 118.72 43.5149 117.04 46.8049L117.07 46.7849ZM113.9 27.1649C114.1 27.161 114.298 27.1307 114.49 27.0749L120.82 36.8049L111.36 34.1549L113.53 27.1549C113.642 27.1736 113.756 27.1836 113.87 27.1849L113.9 27.1649ZM112.58 26.7549L110.38 33.8749L96.9698 30.1549L111.69 25.7649C111.873 26.1778 112.171 26.5286 112.55 26.7749L112.58 26.7549ZM101.61 16.0949H101.82C102.012 16.0951 102.202 16.0578 102.38 15.9849L111.67 23.8949C111.549 24.1723 111.487 24.4722 111.49 24.7749L96.7898 29.1649C96.6841 28.8554 96.4849 28.5863 96.2198 28.3949L101.61 16.0949ZM100.7 15.6349L95.2398 28.0949L90.6998 17.3049L100.55 15.4149C100.591 15.4847 100.641 15.5486 100.7 15.6049V15.6349ZM100.1 14.5049L90.2998 16.3749L86.6598 7.71486L100.1 14.5049ZM84.8298 7.45485C85.0159 7.53569 85.2169 7.5766 85.4198 7.57488H85.4898L89.2798 16.5749L74.1598 19.4649C74.1047 19.3003 74.0309 19.1426 73.9398 18.9949L84.8298 7.45485ZM67.6698 4.50487L84.0498 6.75487L73.1398 18.3149C72.8993 18.2124 72.6411 18.158 72.3798 18.1549C72.2536 18.1396 72.126 18.1396 71.9998 18.1549C70.3798 15.0749 67.9998 9.64487 66.4598 6.15487C67.0275 5.7338 67.4503 5.14674 67.6698 4.47487V4.50487ZM64.4098 6.93487C64.8089 6.93189 65.2045 6.86088 65.5798 6.72487C67.0998 10.2249 69.4898 15.5849 71.1198 18.7249C70.8367 18.9928 70.6444 19.3424 70.5698 19.7249H61.5698C61.5237 19.466 61.422 19.2203 61.2718 19.0045C61.1216 18.7887 60.9265 18.608 60.6998 18.4749L63.9998 6.91488C64.1365 6.92013 64.2735 6.91678 64.4098 6.90487V6.93487ZM48.0998 6.69488L61.0998 4.21486C61.2087 4.72818 61.4339 5.20969 61.758 5.6223C62.0822 6.03492 62.4968 6.36763 62.9698 6.59487L59.6698 18.1549C59.4186 18.1619 59.1709 18.2161 58.9398 18.3149C56.1698 15.3949 50.3398 9.21487 48.0298 6.75487C48.0488 6.72176 48.0724 6.69147 48.0998 6.66488V6.69488ZM46.6298 7.56487H46.6998C46.9026 7.56572 47.1034 7.52488 47.2898 7.44488C49.5898 9.88488 55.3698 16.0249 58.1798 18.9849C58.0807 19.1282 58.0063 19.287 57.9598 19.4549L42.8398 16.5649L46.6298 7.56487ZM45.4598 7.71486L41.8198 16.3749L32.0198 14.5049L45.4598 7.71486ZM31.5698 15.4449L41.4198 17.3349L37.1598 27.4449C36.9861 27.404 36.8082 27.3839 36.6298 27.3849H36.5598L31.4198 15.6349L31.5698 15.4449ZM29.7298 16.0049C29.908 16.0759 30.0979 16.1132 30.2898 16.1149H30.5098L35.5098 27.6649C34.9851 27.9299 34.5759 28.3782 34.3598 28.9249L20.5798 24.8149C20.5772 24.5127 20.516 24.2138 20.3998 23.9349L29.7298 16.0049ZM20.4198 25.7949L34.2598 29.9249C34.2718 30.087 34.2986 30.2476 34.3398 30.4049L21.7698 33.8949L19.5698 26.7749C19.9446 26.5272 20.2397 26.1765 20.4198 25.7649V25.7949ZM17.6598 27.0949C17.8484 27.15 18.0433 27.1802 18.2398 27.1849C18.3662 27.1952 18.4933 27.1952 18.6198 27.1849L20.7898 34.1849L11.3298 36.8349L17.6598 27.0949ZM11.4698 37.8349L21.0898 35.1449L23.5798 43.1449C23.3015 43.2667 23.0647 43.4667 22.8978 43.7205C22.731 43.9744 22.6414 44.2711 22.6398 44.5749C22.6344 44.6448 22.6344 44.715 22.6398 44.7849L15.0598 46.7849C13.3798 43.4949 11.7898 40.3649 10.9898 38.7849C11.2528 38.5318 11.4221 38.1968 11.4698 37.8349ZM9.96978 39.2449H10.0698L14.0698 47.0849L6.59978 49.0849C6.45598 48.8464 6.27348 48.6334 6.05977 48.4549L9.96978 39.2449ZM4.96978 52.5849C5.21498 52.5343 5.45105 52.4467 5.66979 52.3249L13.6698 63.8849L5.44979 72.2049C5.00506 71.8333 4.47056 71.5851 3.89977 71.4849L4.96978 52.5849ZM11.4498 94.8649C11.0504 94.8659 10.6579 94.9692 10.3098 95.1649L4.83977 77.9249C5.1888 77.7694 5.50717 77.5526 5.77978 77.2849L15.3998 83.0549L11.4498 94.8649ZM16.2498 83.5849L22.5798 87.3749C22.5798 87.3749 22.5798 87.4349 22.5798 87.4649C22.579 87.7277 22.6371 87.9874 22.7498 88.2249L13.0698 95.5349C12.8866 95.3604 12.6774 95.2153 12.4498 95.1049L16.2498 83.5849ZM19.6198 107.585C19.3476 107.625 19.0918 107.74 18.8798 107.915L12.5098 99.3549C12.9367 99.1306 13.2855 98.7818 13.5098 98.3549L21.2098 99.2649L19.6198 107.585ZM20.6198 107.765L22.2398 99.3449L31.6998 100.455C31.7583 101.003 32.006 101.513 32.4003 101.898C32.7945 102.283 33.3106 102.519 33.8598 102.565L35.0098 108.895H21.4298C21.3938 108.661 21.3049 108.439 21.1697 108.244C21.0345 108.05 20.8566 107.89 20.6498 107.775L20.6198 107.765ZM36.0998 121.295L20.9898 110.195C21.0793 110.112 21.1537 110.013 21.2098 109.905H35.2098L37.1498 120.545C36.7461 120.699 36.3931 120.962 36.1298 121.305L36.0998 121.295ZM38.0998 120.405L36.1898 109.905H46.9698C47.0067 109.957 47.0468 110.007 47.0898 110.055L38.9198 120.565C38.6795 120.475 38.4262 120.424 38.1698 120.415L38.0998 120.405ZM39.6398 121.125L47.9698 110.585H48.0998L51.3398 117.255L40.1198 121.645C40.0068 121.445 39.869 121.26 39.7098 121.095L39.6398 121.125ZM54.3998 128.025L40.1998 123.455C40.267 123.234 40.304 123.005 40.3098 122.775C40.3098 122.725 40.3098 122.675 40.3098 122.625L51.6998 118.165L55.7998 126.625C55.2283 126.955 54.766 127.445 54.4698 128.035L54.3998 128.025ZM57.3998 126.205C57.1751 126.204 56.9508 126.224 56.7298 126.265L52.6098 117.795L62.9398 113.795C63.0616 113.934 63.1992 114.058 63.3498 114.165L58.2698 126.365C58.0129 126.285 57.7479 126.235 57.4798 126.215L57.3998 126.205ZM72.2598 129.095H60.8498C60.7734 128.61 60.5948 128.147 60.3258 127.737C60.0568 127.327 59.7037 126.978 59.2898 126.715L64.3698 114.505C64.5096 114.515 64.65 114.515 64.7898 114.505C65.0134 114.503 65.2356 114.469 65.4498 114.405L72.9698 127.785C72.5973 128.133 72.3481 128.593 72.2598 129.095ZM74.5998 127.185C74.3584 127.189 74.1191 127.229 73.8898 127.305L66.3398 113.995C66.3922 113.958 66.4422 113.918 66.4898 113.875L79.1798 118.325L74.8698 127.215L74.5998 127.185ZM76.6598 128.375C76.4589 128.032 76.1774 127.744 75.8398 127.535L80.1498 118.665L91.7498 122.725C91.7498 122.725 91.7498 122.785 91.7498 122.805C91.7555 123.035 91.7925 123.264 91.8598 123.485L76.6598 128.375ZM91.9698 121.725L80.5598 117.725L84.0298 110.595H84.1598L92.4098 121.095C92.2278 121.278 92.0789 121.491 91.9698 121.725ZM93.9698 120.415C93.7295 120.431 93.4933 120.485 93.2698 120.575L85.0798 110.095L85.1998 109.945H95.8598L93.9698 120.415ZM95.9698 121.305C95.7096 120.97 95.3642 120.711 94.9698 120.555L96.9098 109.915H110.56C110.642 110.087 110.75 110.246 110.88 110.385L95.9698 121.305ZM110.37 108.905H97.0798L98.2298 102.575C98.7779 102.529 99.2927 102.293 99.6852 101.908C100.078 101.522 100.323 101.012 100.38 100.465L109.84 99.3549L111.41 107.465C111.133 107.601 110.895 107.804 110.717 108.055C110.539 108.307 110.426 108.599 110.39 108.905H110.37ZM113.37 107.685C113.086 107.453 112.736 107.317 112.37 107.295L110.81 99.2349L118.52 98.3249C118.741 98.7538 119.091 99.1032 119.52 99.3249L113.37 107.685ZM119.01 95.5349L109.33 88.2249C109.446 87.9881 109.507 87.7284 109.51 87.4649C109.51 87.4649 109.51 87.4049 109.51 87.3749L115.84 83.5849L119.65 95.0949C119.42 95.2108 119.208 95.3589 119.02 95.5349H119.01ZM121.8 95.1649C121.456 94.9679 121.066 94.8645 120.67 94.8649L116.73 83.0949L126.22 77.4049C126.496 77.739 126.836 78.0144 127.22 78.2149L121.8 95.1649ZM126.8 72.4249L118.36 63.8849L126.36 52.3249C126.576 52.445 126.808 52.5326 127.05 52.5849L128.11 71.8249C127.645 71.931 127.209 72.1356 126.83 72.4249H126.8Z" fill="url(#paint0_linear_21_86)"/>
<path d="M45.5198 64.2148L66.6498 76.4048L87.7798 64.2148L66.6498 31.4648L45.5198 64.2148ZM68.7598 38.6349L84.7598 63.4948L68.7598 72.7448V38.6349Z" fill="white"/>
<path d="M45.5198 68.8545L66.6498 97.6545L87.7798 68.8545L66.6498 81.6245L45.5198 68.8545ZM68.7598 82.8545L79.8198 76.0945L68.7598 91.1645V82.8545Z" fill="white"/>
<defs>
<linearGradient id="paint0_linear_21_86" x1="66.0998" y1="1.16486" x2="66.0998" y2="128.005" gradientUnits="userSpaceOnUse">
<stop stop-color="#34F5FF"/>
<stop offset="0.93" stop-color="#38E67D"/>
<stop offset="1" stop-color="#38E572"/>
</linearGradient>
</defs>
</svg>
